<?xml version="1.0" encoding="utf-8"?>
<!-- Generator: Adobe Illustrator 22.1.0, SVG Export Plug-In . SVG Version: 6.00 Build 0)  -->
<svg version="1.1" id="Layer_1" xmlns="http://www.w3.org/2000/svg" xmlns:xlink="http://www.w3.org/1999/xlink" x="0px" y="0px"
	 viewBox="0 0 1080 1080" style="enable-background:new 0 0 1080 1080;" xml:space="preserve">
<circle style="fill:#B71515;stroke:#000000;stroke-width:3;stroke-miterlimit:10;" cx="358.3" cy="526.8" r="350"/>
<circle style="fill:#FF0000;stroke:#000000;stroke-width:3;stroke-miterlimit:10;" cx="723.1" cy="720.9" r="350"/>
<g>
	<path style="fill:#39B54A;" d="M397.7,347.1c59.2-79.5,141.6-139.6,230.9-182.6S814.1,94.8,911,73.9"/>
	<g>
		<path d="M399,347.8c43.7-58.5,100.1-106.6,162.1-144.9c67.1-41.3,140.7-71,216.1-93.6c44.2-13.3,89.1-24.2,134.2-33.9
			c1.9-0.4,1.1-3.3-0.8-2.9c-81.3,17.5-162,39-238.9,71c-68.8,28.6-134.4,65.8-191.4,114.1c-31.1,26.4-59.4,56-83.9,88.7
			C395.3,347.8,397.9,349.3,399,347.8L399,347.8z"/>
	</g>
</g>
<g>
	<path style="fill:#39B54A;" d="M916.2,74c10.9,158.5-16.4,319.5-79,465.5"/>
	<g>
		<path d="M914.7,74c4.2,61.3,2.7,122.9-4.3,183.9c-7.1,61.5-19.8,122.3-38,181.5c-10.4,33.8-22.5,66.9-36.4,99.4
			c-0.8,1.8,1.8,3.3,2.6,1.5c24.3-56.9,43.4-115.9,56.9-176.3c13.6-60.6,21.6-122.6,23.9-184.7c1.3-35.1,0.7-70.3-1.6-105.3
			C917.5,72,914.5,72,914.7,74L914.7,74z"/>
	</g>
</g>
</svg>
