<?xml version="1.0" encoding="utf-8"?>
<!-- Generator: Adobe Illustrator 22.1.0, SVG Export Plug-In . SVG Version: 6.00 Build 0)  -->
<svg version="1.1" id="Layer_1" xmlns="http://www.w3.org/2000/svg" xmlns:xlink="http://www.w3.org/1999/xlink" x="0px" y="0px"
	 viewBox="0 0 1080 1080" style="enable-background:new 0 0 1080 1080;" xml:space="preserve">
<g>
	
		<ellipse transform="matrix(0.2494 -0.9684 0.9684 0.2494 364.5756 832.6171)" style="fill:#FBB03B;" cx="719.4" cy="181.1" rx="142.8" ry="352.9"/>
	
		<ellipse transform="matrix(0.2494 -0.9684 0.9684 0.2494 345.7504 836.1464)" style="fill:#FBB03B;" cx="712.3" cy="195" rx="142.8" ry="352.9"/>
	
		<ellipse transform="matrix(0.2494 -0.9684 0.9684 0.2494 326.9251 839.6757)" style="fill:#FBB03B;" cx="705.1" cy="208.9" rx="142.8" ry="352.9"/>
	
		<ellipse transform="matrix(0.2494 -0.9684 0.9684 0.2494 308.0999 843.205)" style="fill:#FBB03B;" cx="698" cy="222.8" rx="142.8" ry="352.9"/>
	
		<ellipse transform="matrix(0.2494 -0.9684 0.9684 0.2494 289.2746 846.7343)" style="fill:#FBB03B;" cx="690.9" cy="236.8" rx="142.8" ry="352.9"/>
	
		<ellipse transform="matrix(0.2494 -0.9684 0.9684 0.2494 270.4494 850.2635)" style="fill:#FBB03B;" cx="683.7" cy="250.7" rx="142.8" ry="352.9"/>
	
		<ellipse transform="matrix(0.2494 -0.9684 0.9684 0.2494 251.6241 853.7928)" style="fill:#FBB03B;" cx="676.6" cy="264.6" rx="142.8" ry="352.9"/>
	
		<ellipse transform="matrix(0.2494 -0.9684 0.9684 0.2494 232.7989 857.3221)" style="fill:#FBB03B;" cx="669.5" cy="278.5" rx="142.8" ry="352.9"/>
	
		<ellipse transform="matrix(0.2494 -0.9684 0.9684 0.2494 213.9736 860.8514)" style="fill:#FBB03B;" cx="662.3" cy="292.4" rx="142.8" ry="352.9"/>
	
		<ellipse transform="matrix(0.2494 -0.9684 0.9684 0.2494 195.1484 864.3807)" style="fill:#FBB03B;" cx="655.2" cy="306.3" rx="142.8" ry="352.9"/>
	
		<ellipse transform="matrix(0.2494 -0.9684 0.9684 0.2494 176.3231 867.91)" style="fill:#FBB03B;" cx="648.1" cy="320.2" rx="142.8" ry="352.9"/>
	
		<ellipse transform="matrix(0.2494 -0.9684 0.9684 0.2494 157.4979 871.4393)" style="fill:#FBB03B;" cx="640.9" cy="334.1" rx="142.8" ry="352.9"/>
	
		<ellipse transform="matrix(0.2494 -0.9684 0.9684 0.2494 138.6726 874.9686)" style="fill:#FBB03B;" cx="633.8" cy="348" rx="142.8" ry="352.9"/>
	
		<ellipse transform="matrix(0.2494 -0.9684 0.9684 0.2494 119.8474 878.4979)" style="fill:#FBB03B;" cx="626.7" cy="361.9" rx="142.8" ry="352.9"/>
	
		<ellipse transform="matrix(0.2494 -0.9684 0.9684 0.2494 101.0221 882.0272)" style="fill:#FBB03B;" cx="619.5" cy="375.8" rx="142.8" ry="352.9"/>
	
		<ellipse transform="matrix(0.2494 -0.9684 0.9684 0.2494 82.1969 885.5565)" style="fill:#FBB03B;" cx="612.4" cy="389.8" rx="142.8" ry="352.9"/>
	
		<ellipse transform="matrix(0.2494 -0.9684 0.9684 0.2494 63.3716 889.0858)" style="fill:#FBB03B;" cx="605.2" cy="403.7" rx="142.8" ry="352.9"/>
	
		<ellipse transform="matrix(0.2494 -0.9684 0.9684 0.2494 44.5464 892.615)" style="fill:#FBB03B;" cx="598.1" cy="417.6" rx="142.8" ry="352.9"/>
	
		<ellipse transform="matrix(0.2494 -0.9684 0.9684 0.2494 25.7211 896.1443)" style="fill:#FBB03B;" cx="591" cy="431.5" rx="142.8" ry="352.9"/>
	
		<ellipse transform="matrix(0.2494 -0.9684 0.9684 0.2494 6.8959 899.6736)" style="fill:#FBB03B;" cx="583.8" cy="445.4" rx="142.8" ry="352.9"/>
	
		<ellipse transform="matrix(0.2494 -0.9684 0.9684 0.2494 -11.9294 903.2029)" style="fill:#FBB03B;" cx="576.7" cy="459.3" rx="142.8" ry="352.9"/>
	
		<ellipse transform="matrix(0.2494 -0.9684 0.9684 0.2494 -30.7546 906.7322)" style="fill:#FBB03B;" cx="569.6" cy="473.2" rx="142.8" ry="352.9"/>
	
		<ellipse transform="matrix(0.2494 -0.9684 0.9684 0.2494 -49.5799 910.2615)" style="fill:#FBB03B;" cx="562.4" cy="487.1" rx="142.8" ry="352.9"/>
	
		<ellipse transform="matrix(0.2494 -0.9684 0.9684 0.2494 -68.4051 913.7908)" style="fill:#FBB03B;" cx="555.3" cy="501" rx="142.8" ry="352.9"/>
	
		<ellipse transform="matrix(0.2494 -0.9684 0.9684 0.2494 -87.2304 917.32)" style="fill:#FBB03B;" cx="548.2" cy="514.9" rx="142.8" ry="352.9"/>
	
		<ellipse transform="matrix(0.2494 -0.9684 0.9684 0.2494 -106.0556 920.8493)" style="fill:#FBB03B;" cx="541" cy="528.8" rx="142.8" ry="352.9"/>
	
		<ellipse transform="matrix(0.2494 -0.9684 0.9684 0.2494 -124.8809 924.3786)" style="fill:#FBB03B;" cx="533.9" cy="542.8" rx="142.8" ry="352.9"/>
	
		<ellipse transform="matrix(0.2494 -0.9684 0.9684 0.2494 -143.7061 927.9079)" style="fill:#FBB03B;" cx="526.8" cy="556.7" rx="142.8" ry="352.9"/>
	
		<ellipse transform="matrix(0.2494 -0.9684 0.9684 0.2494 -162.5314 931.4372)" style="fill:#FBB03B;" cx="519.6" cy="570.6" rx="142.8" ry="352.9"/>
	
		<ellipse transform="matrix(0.2494 -0.9684 0.9684 0.2494 -181.3566 934.9665)" style="fill:#FBB03B;" cx="512.5" cy="584.5" rx="142.8" ry="352.9"/>
	
		<ellipse transform="matrix(0.2494 -0.9684 0.9684 0.2494 -200.1819 938.4958)" style="fill:#FBB03B;" cx="505.3" cy="598.4" rx="142.8" ry="352.9"/>
	
		<ellipse transform="matrix(0.2494 -0.9684 0.9684 0.2494 -219.0071 942.025)" style="fill:#FBB03B;" cx="498.2" cy="612.3" rx="142.8" ry="352.9"/>
	
		<ellipse transform="matrix(0.2494 -0.9684 0.9684 0.2494 -237.8324 945.5543)" style="fill:#FBB03B;" cx="491.1" cy="626.2" rx="142.8" ry="352.9"/>
	
		<ellipse transform="matrix(0.2494 -0.9684 0.9684 0.2494 -256.6576 949.0836)" style="fill:#FBB03B;" cx="483.9" cy="640.1" rx="142.8" ry="352.9"/>
	
		<ellipse transform="matrix(0.2494 -0.9684 0.9684 0.2494 -275.4829 952.6129)" style="fill:#FBB03B;" cx="476.8" cy="654" rx="142.8" ry="352.9"/>
	
		<ellipse transform="matrix(0.2494 -0.9684 0.9684 0.2494 -294.3081 956.1422)" style="fill:#FBB03B;" cx="469.7" cy="667.9" rx="142.8" ry="352.9"/>
	
		<ellipse transform="matrix(0.2494 -0.9684 0.9684 0.2494 -313.1334 959.6715)" style="fill:#FBB03B;" cx="462.5" cy="681.8" rx="142.8" ry="352.9"/>
	
		<ellipse transform="matrix(0.2494 -0.9684 0.9684 0.2494 -331.9586 963.2007)" style="fill:#FBB03B;" cx="455.4" cy="695.8" rx="142.8" ry="352.9"/>
	
		<ellipse transform="matrix(0.2494 -0.9684 0.9684 0.2494 -350.7839 966.73)" style="fill:#FBB03B;" cx="448.3" cy="709.7" rx="142.8" ry="352.9"/>
	
		<ellipse transform="matrix(0.2494 -0.9684 0.9684 0.2494 -369.6091 970.2593)" style="fill:#FBB03B;" cx="441.1" cy="723.6" rx="142.8" ry="352.9"/>
	
		<ellipse transform="matrix(0.2494 -0.9684 0.9684 0.2494 -388.4344 973.7886)" style="fill:#FBB03B;" cx="434" cy="737.5" rx="142.8" ry="352.9"/>
	
		<ellipse transform="matrix(0.2494 -0.9684 0.9684 0.2494 -407.2596 977.3179)" style="fill:#FBB03B;" cx="426.9" cy="751.4" rx="142.8" ry="352.9"/>
	
		<ellipse transform="matrix(0.2494 -0.9684 0.9684 0.2494 -426.0849 980.8472)" style="fill:#FBB03B;" cx="419.7" cy="765.3" rx="142.8" ry="352.9"/>
	
		<ellipse transform="matrix(0.2494 -0.9684 0.9684 0.2494 -444.9101 984.3765)" style="fill:#FBB03B;" cx="412.6" cy="779.2" rx="142.8" ry="352.9"/>
	
		<ellipse transform="matrix(0.2494 -0.9684 0.9684 0.2494 -463.7354 987.9058)" style="fill:#FBB03B;" cx="405.4" cy="793.1" rx="142.8" ry="352.9"/>
	
		<ellipse transform="matrix(0.2494 -0.9684 0.9684 0.2494 -482.5606 991.4351)" style="fill:#FBB03B;" cx="398.3" cy="807" rx="142.8" ry="352.9"/>
	
		<ellipse transform="matrix(0.2494 -0.9684 0.9684 0.2494 -501.3859 994.9644)" style="fill:#FBB03B;" cx="391.2" cy="820.9" rx="142.8" ry="352.9"/>
	
		<ellipse transform="matrix(0.2494 -0.9684 0.9684 0.2494 -520.2111 998.4937)" style="fill:#FBB03B;" cx="384" cy="834.8" rx="142.8" ry="352.9"/>
	
		<ellipse transform="matrix(0.2494 -0.9684 0.9684 0.2494 -539.0364 1002.0229)" style="fill:#FBB03B;" cx="376.9" cy="848.8" rx="142.8" ry="352.9"/>
	
		<ellipse transform="matrix(0.2494 -0.9684 0.9684 0.2494 -557.8616 1005.5522)" style="fill:#FBB03B;" cx="369.8" cy="862.7" rx="142.8" ry="352.9"/>
	
		<ellipse transform="matrix(0.2494 -0.9684 0.9684 0.2494 -576.6869 1009.0815)" style="fill:#FBB03B;" cx="362.6" cy="876.6" rx="142.8" ry="352.9"/>
	
		<ellipse transform="matrix(0.2494 -0.9684 0.9684 0.2494 -595.5121 1012.6108)" style="fill:#FBB03B;" cx="355.5" cy="890.5" rx="142.8" ry="352.9"/>
</g>
<ellipse transform="matrix(0.2494 -0.9684 0.9684 0.2494 365.4837 831.4609)" style="fill:#F7931E;" cx="719.1" cy="180" rx="142.8" ry="352.9"/>
<ellipse transform="matrix(0.2494 -0.9684 0.9684 0.2494 -594.604 1011.4546)" style="fill:#FBB03B;" cx="355.2" cy="889.3" rx="142.8" ry="352.9"/>
<line style="fill:none;" x1="355.2" y1="889.3" x2="719.1" y2="180"/>
</svg>
